<svg width="269" height="180" viewBox="0 0 269 180" fill="none" xmlns="http://www.w3.org/2000/svg">
<mask id="mask0_1_220" style="mask-type:alpha" maskUnits="userSpaceOnUse" x="0" y="0" width="269" height="180">
<path d="M0 180L269 180L269 2.28882e-05L1.57361e-05 -6.28546e-07L0 180Z" fill="url(#paint0_linear_1_220)"/>
</mask>
<g mask="url(#mask0_1_220)">
<path opacity="0.09" d="M344.583 297.245C317.774 291.575 288.827 271.719 276.934 241.387C260.93 200.553 285.951 150.041 254.16 114.345C211.055 65.9533 149.422 104.673 104.142 106.271C14.2929 109.445 -20.4373 -26.1125 -2.42099 -99.6734C18.6869 -185.778 98.1329 -223.772 177.553 -210.039C249.362 -197.611 320.386 -153.096 378.418 -97.4143C414.09 -63.1973 446.882 -22.8437 469.987 22.8623C487.761 58.0435 497.481 96.4941 497.984 134.471C499.236 232.812 439.308 317.219 344.583 297.245Z" fill="#9396D1"/>
<path opacity="0.1" d="M250.476 172.979C234.87 166.873 219.594 152.531 215.862 134.13C210.842 109.357 231.809 83.5743 216.626 59.9888C196.038 28.0135 154.223 43.1735 126.582 39.1644C71.7339 31.211 66.2243 -49.0306 85.588 -88.5764C108.265 -134.863 160.8 -147.683 207.384 -131.322C249.503 -116.523 287.465 -83.7076 316.268 -46.001C333.974 -22.8288 349.229 3.49304 357.997 31.784C364.739 53.5591 366.222 76.3053 362.171 97.7845C351.649 153.4 305.626 194.519 250.476 172.979Z" fill="#A9ABDB"/>
<path d="M204.798 -1.25007C207.408 6.26029 210.291 13.7706 214.678 19.8892C219.065 26.0078 225.193 30.6514 231.811 30.8834C236.378 31.0453 240.815 29.1415 245.347 28.4106C249.88 27.6797 255.05 28.4544 258.001 32.761C260.427 36.3017 260.742 41.4093 260.079 45.9698C259.416 50.5303 257.905 54.8413 257.065 59.358C256.228 63.8747 256.135 68.9123 258.132 72.8381C259.71 75.9412 262.377 77.937 265.079 79.4469C273.8 84.3138 283.953 85.1409 293.114 81.7359" stroke="white" stroke-width="2" stroke-miterlimit="10"/>
</g>
<defs>
<linearGradient id="paint0_linear_1_220" x1="144.043" y1="177.223" x2="144.043" y2="3.02948" gradientUnits="userSpaceOnUse">
<stop offset="0.4" stop-color="#F5F7FB"/>
<stop offset="1" stop-color="#E9F4F6"/>
</linearGradient>
</defs>
</svg>
